<mxfile host="app.diagrams.net" modified="2023-02-03T09:23:23.470Z" agent="5.0 (Windows NT 10.0; Win64; x64) AppleWebKit/537.36 (KHTML, like Gecko) Chrome/109.0.0.0 Safari/537.36" version="20.8.3" etag="cr5bye9E0ncisU1NeSVf" type="github">
  <diagram id="pE2xlnz7-cDqn9axEjQr" name="第 1 页">
    <mxGraphModel dx="1434" dy="774" grid="1" gridSize="10" guides="1" tooltips="1" connect="1" arrows="1" fold="1" page="1" pageScale="1" pageWidth="827" pageHeight="1169" math="0" shadow="0">
      <root>
        <mxCell id="0" />
        <mxCell id="1" parent="0" />
        <mxCell id="L3tKkdkCrG2Vyof91Brv-33" value="" style="rounded=1;whiteSpace=wrap;html=1;fontSize=14;" vertex="1" parent="1">
          <mxGeometry x="160" y="30" width="460" height="590" as="geometry" />
        </mxCell>
        <mxCell id="L3tKkdkCrG2Vyof91Brv-3" value="" style="edgeStyle=orthogonalEdgeStyle;rounded=0;orthogonalLoop=1;jettySize=auto;html=1;" edge="1" parent="1" source="L3tKkdkCrG2Vyof91Brv-1">
          <mxGeometry relative="1" as="geometry">
            <mxPoint x="395" y="440" as="targetPoint" />
          </mxGeometry>
        </mxCell>
        <mxCell id="L3tKkdkCrG2Vyof91Brv-1" value="Image Sequences" style="rounded=1;whiteSpace=wrap;html=1;" vertex="1" parent="1">
          <mxGeometry x="310" y="480" width="170" height="60" as="geometry" />
        </mxCell>
        <mxCell id="L3tKkdkCrG2Vyof91Brv-5" value="" style="edgeStyle=orthogonalEdgeStyle;rounded=0;orthogonalLoop=1;jettySize=auto;html=1;" edge="1" parent="1" target="L3tKkdkCrG2Vyof91Brv-4">
          <mxGeometry relative="1" as="geometry">
            <mxPoint x="395" y="400" as="sourcePoint" />
          </mxGeometry>
        </mxCell>
        <mxCell id="L3tKkdkCrG2Vyof91Brv-7" style="edgeStyle=orthogonalEdgeStyle;rounded=0;orthogonalLoop=1;jettySize=auto;html=1;exitX=0.5;exitY=0;exitDx=0;exitDy=0;entryX=0.5;entryY=1;entryDx=0;entryDy=0;" edge="1" parent="1" source="L3tKkdkCrG2Vyof91Brv-4" target="L3tKkdkCrG2Vyof91Brv-14">
          <mxGeometry relative="1" as="geometry">
            <mxPoint x="510" y="230" as="targetPoint" />
          </mxGeometry>
        </mxCell>
        <mxCell id="L3tKkdkCrG2Vyof91Brv-13" style="edgeStyle=orthogonalEdgeStyle;rounded=0;orthogonalLoop=1;jettySize=auto;html=1;exitX=0.5;exitY=0;exitDx=0;exitDy=0;entryX=0.5;entryY=1;entryDx=0;entryDy=0;" edge="1" parent="1" source="L3tKkdkCrG2Vyof91Brv-4" target="L3tKkdkCrG2Vyof91Brv-15">
          <mxGeometry relative="1" as="geometry">
            <mxPoint x="280" y="230" as="targetPoint" />
          </mxGeometry>
        </mxCell>
        <mxCell id="L3tKkdkCrG2Vyof91Brv-4" value="Conformer Module" style="rounded=1;whiteSpace=wrap;html=1;fillColor=#cce5ff;strokeColor=#36393d;fontStyle=1;fontSize=14;" vertex="1" parent="1">
          <mxGeometry x="310" y="290" width="170" height="60" as="geometry" />
        </mxCell>
        <mxCell id="L3tKkdkCrG2Vyof91Brv-14" value="Linear" style="rounded=1;whiteSpace=wrap;html=1;fillColor=#d0cee2;strokeColor=#56517e;" vertex="1" parent="1">
          <mxGeometry x="420" y="160" width="170" height="50" as="geometry" />
        </mxCell>
        <mxCell id="L3tKkdkCrG2Vyof91Brv-27" value="" style="edgeStyle=orthogonalEdgeStyle;rounded=0;orthogonalLoop=1;jettySize=auto;html=1;fontSize=14;" edge="1" parent="1" source="L3tKkdkCrG2Vyof91Brv-15">
          <mxGeometry relative="1" as="geometry">
            <mxPoint x="275" y="100" as="targetPoint" />
          </mxGeometry>
        </mxCell>
        <mxCell id="L3tKkdkCrG2Vyof91Brv-15" value="Transformer Decoder" style="rounded=1;whiteSpace=wrap;html=1;fillColor=#f8cecc;strokeColor=#b85450;fontStyle=1;fontSize=14;" vertex="1" parent="1">
          <mxGeometry x="190" y="160" width="170" height="50" as="geometry" />
        </mxCell>
        <mxCell id="L3tKkdkCrG2Vyof91Brv-16" value="Image Sequences" style="rounded=1;whiteSpace=wrap;html=1;" vertex="1" parent="1">
          <mxGeometry x="310" y="480" width="170" height="60" as="geometry" />
        </mxCell>
        <mxCell id="L3tKkdkCrG2Vyof91Brv-18" value="Image Sequences" style="rounded=1;whiteSpace=wrap;html=1;fontStyle=1" vertex="1" parent="1">
          <mxGeometry x="310" y="480" width="170" height="60" as="geometry" />
        </mxCell>
        <mxCell id="L3tKkdkCrG2Vyof91Brv-29" value="" style="edgeStyle=orthogonalEdgeStyle;rounded=0;orthogonalLoop=1;jettySize=auto;html=1;fontSize=14;" edge="1" parent="1" source="L3tKkdkCrG2Vyof91Brv-20">
          <mxGeometry relative="1" as="geometry">
            <mxPoint x="505" y="100" as="targetPoint" />
          </mxGeometry>
        </mxCell>
        <mxCell id="L3tKkdkCrG2Vyof91Brv-20" value="Linear" style="rounded=1;whiteSpace=wrap;html=1;fillColor=#d0cee2;strokeColor=#56517e;fontStyle=1;fontSize=14;" vertex="1" parent="1">
          <mxGeometry x="420" y="160" width="170" height="50" as="geometry" />
        </mxCell>
        <mxCell id="L3tKkdkCrG2Vyof91Brv-21" value="Image Sequences" style="rounded=1;whiteSpace=wrap;html=1;fontStyle=1" vertex="1" parent="1">
          <mxGeometry x="310" y="480" width="170" height="60" as="geometry" />
        </mxCell>
        <mxCell id="L3tKkdkCrG2Vyof91Brv-25" value="" style="edgeStyle=orthogonalEdgeStyle;rounded=0;orthogonalLoop=1;jettySize=auto;html=1;fontSize=14;" edge="1" parent="1" source="L3tKkdkCrG2Vyof91Brv-23" target="L3tKkdkCrG2Vyof91Brv-24">
          <mxGeometry relative="1" as="geometry" />
        </mxCell>
        <mxCell id="L3tKkdkCrG2Vyof91Brv-23" value="Image Sequences" style="rounded=1;whiteSpace=wrap;html=1;fontStyle=1;fontSize=14;" vertex="1" parent="1">
          <mxGeometry x="310" y="480" width="170" height="60" as="geometry" />
        </mxCell>
        <mxCell id="L3tKkdkCrG2Vyof91Brv-24" value="Face Detection Module" style="rounded=1;whiteSpace=wrap;html=1;fillColor=#cdeb8b;strokeColor=#36393d;fontStyle=1;fontSize=14;" vertex="1" parent="1">
          <mxGeometry x="310" y="380" width="170" height="60" as="geometry" />
        </mxCell>
        <mxCell id="L3tKkdkCrG2Vyof91Brv-30" value="CE Loss" style="text;html=1;align=center;verticalAlign=middle;resizable=0;points=[];autosize=1;strokeColor=none;fillColor=none;fontSize=14;" vertex="1" parent="1">
          <mxGeometry x="235" y="70" width="80" height="30" as="geometry" />
        </mxCell>
        <mxCell id="L3tKkdkCrG2Vyof91Brv-31" value="CTC Loss" style="text;html=1;align=center;verticalAlign=middle;resizable=0;points=[];autosize=1;strokeColor=none;fillColor=none;fontSize=14;" vertex="1" parent="1">
          <mxGeometry x="455" y="70" width="90" height="30" as="geometry" />
        </mxCell>
      </root>
    </mxGraphModel>
  </diagram>
</mxfile>
